<?xml version="1.0" encoding="UTF-8" standalone="no"?>
<svg viewBox="0 0 22 22" width="22" height="22" version="1.1" xmlns="http://www.w3.org/2000/svg">
  <path
    style="fill:#ffffff;fill-opacity:1;stroke:none;stroke-width:1.25"
    d="m 12.578294,21.830482 c -0.838196,0.142963 -2.6861362,0.214338 -3.5204493,0.135875 -1.0950084,-0.103 -2.1761,-0.392625 -3.2498765,-0.870712 C 3.4006612,20.023832 1.9517819,18.556357 0.93819793,16.163357 0.47479655,15.069307 0.25480143,14.249682 0.12243393,13.12397 -0.17243245,10.616357 0.32798905,8.1698043 1.4961606,6.4078168 3.0970623,3.9931293 5.5928906,2.1277418 8.9850266,0.81061684 9.5328978,0.59786684 10.354075,0.27080271 10.612922,0.16134021 l 0.190118,-0.0388113 0.19044,0.0393719 0.159315,0.1028975 c 0.125855,0.196375 0.25029,0.61873125 0.319153,0.87695629 0.136847,0.5130375 0.474601,3.3408875 0.50079,4.1929125 0.05009,1.629275 -0.384884,3.3238375 -1.423485,5.5456149 -0.6400164,1.369138 -1.3133068,1.800048 -2.2602259,3.059936 l -0.3085628,0.410547 -0.3256207,0.59394 0.051156,0.03121 c 0.3829976,-0.0215 0.7532755,-0.33431 2.1267793,-1.444522 1.1363411,-0.918525 2.2155661,-1.6396 3.6432241,-2.434175 0.87704,-0.488125 1.166679,-0.615363 2.280997,-1.001972 1.111082,-0.3854838 1.451608,-0.4739582 2.629218,-0.6830707 1.650657,-0.2932475 2.455955,-0.3882477 2.871945,-0.3387602 0.333432,0.039625 0.624245,0.2420365 0.722655,0.5028977 0.109237,0.289611 -0.06701,1.2232172 -0.475465,2.5182922 -0.223296,0.707975 -0.520374,1.708988 -0.660193,2.224438 -0.288945,1.0653 -0.816073,2.256325 -1.29189,2.918987 -0.462201,0.643688 -1.809927,2.013925 -2.499832,2.541563 -0.981668,0.7508 -1.583578,1.081862 -2.798161,1.539037 -0.757845,0.285275 -1.276994,0.443788 -1.676964,0.512025 z" />
</svg>
